<svg xmlns="http://www.w3.org/2000/svg" xmlns:xlink="http://www.w3.org/1999/xlink" version="1.1" x="0px" y="0px" viewBox="0 0 100 125" style="enable-background:new 0 0 100 100;" xml:space="preserve"><g>

<path fill="#fff" d="M70.32,55.26l-6.85-5c-0.86-0.63-1.92-0.89-2.98-0.72c-1.06,0.16-1.99,0.73-2.61,1.59l-2.12,2.9   c-0.11,0.15-0.07,0.01-0.12,0.2c-0.01,0.02-0.13,0.18-0.51,0.24c-0.64,0.1-2.56-0.02-6.71-3.34l-0.4-0.29   c-4.37-2.91-5.07-4.7-5.17-5.34c-0.05-0.33,0.03-0.49,0.02-0.5c0.14-0.09,0.1-0.09,0.21-0.23l2.12-2.9   c0.63-0.86,0.89-1.92,0.72-2.98s-0.73-1.99-1.59-2.62l-6.97-5.09c-1.78-1.3-4.29-0.91-5.59,0.87l-2.14,2.94   c-1.89,2.59-2.4,6.13-1.33,9.25c1.65,4.81,5.86,9.92,12.52,15.2c0.09,0.11,0.19,0.2,0.31,0.29c0.17,0.12,0.34,0.24,0.51,0.35   c0.16,0.13,0.33,0.25,0.49,0.38c0.11,0.09,0.24,0.16,0.37,0.21c7.06,4.73,13.21,7.18,18.3,7.29c0.07,0,0.13,0,0.2,0   c3.16,0,6.17-1.55,8.08-4.18l2.14-2.94c0.63-0.86,0.89-1.92,0.72-2.98S71.18,55.89,70.32,55.26z M68.77,59.08l-2.14,2.94   c-1.38,1.89-3.55,2.98-5.8,2.94c-3.23-0.07-8.86-1.4-17.45-7.3c-8.23-6.38-11.22-11.34-12.27-14.39c-0.76-2.2-0.41-4.7,0.92-6.51   l2.15-2.94c0.16-0.22,0.39-0.36,0.65-0.4c0.26-0.04,0.53,0.02,0.75,0.18l6.97,5.09c0.22,0.16,0.36,0.39,0.4,0.65   s-0.02,0.53-0.18,0.75l-2.05,2.81c-0.48,0.52-0.96,1.47-0.88,2.67c0.16,2.41,2.29,4.94,6.47,7.72l0.3,0.21   c3.96,3.17,7.03,4.43,9.37,3.84c1.17-0.29,1.93-1.03,2.28-1.65l2.05-2.81c0.32-0.45,0.95-0.54,1.4-0.22l6.85,5   c0.22,0.16,0.36,0.39,0.4,0.65C68.99,58.6,68.93,58.87,68.77,59.08z"/>

<path fill="#fff" d="M50,14.31c-19.17,0-34.77,15.6-34.77,34.77c0,8.22,2.9,16.14,8.19,22.4l-6.17,12.03c-0.27,0.53-0.2,1.18,0.18,1.64   c0.29,0.35,0.72,0.54,1.15,0.54c0.14,0,0.29-0.02,0.43-0.06l16.55-4.92c4.55,2.08,9.4,3.13,14.44,3.13   c19.17,0,34.77-15.6,34.77-34.77S69.17,14.31,50,14.31z M50,80.84c-4.78,0-9.38-1.04-13.68-3.09c-0.34-0.16-0.72-0.19-1.07-0.08   l-13.73,4.08l5.03-9.81c0.28-0.55,0.2-1.22-0.22-1.69c-5.22-5.83-8.1-13.36-8.1-21.18c0-17.52,14.25-31.77,31.77-31.77   s31.77,14.25,31.77,31.77S67.52,80.84,50,80.84z"/></g>
</svg>