<svg xmlns:dc="http://purl.org/dc/elements/1.1/" xmlns:cc="http://creativecommons.org/ns#" xmlns:rdf="http://www.w3.org/1999/02/22-rdf-syntax-ns#" xmlns:svg="http://www.w3.org/2000/svg" xmlns="http://www.w3.org/2000/svg" xmlns:sodipodi="http://sodipodi.sourceforge.net/DTD/sodipodi-0.dtd" xmlns:inkscape="http://www.inkscape.org/namespaces/inkscape" version="1.1" x="0px" y="0px" viewBox="0 0 100 125">
<g transform="translate(0,-952.36218)">
<path style="opacity:1;color:#000000;fill:#000;stroke:none;stroke-width:3.99999976000000010;stroke-linecap:round;stroke-linejoin:round;stroke-miterlimit:4;stroke-opacity:1;stroke-dasharray:none;stroke-dashoffset:0;marker:none;visibility:visible;display:inline;overflow:visible;enable-background:accumulate" d="M 14 8 L 14 80 L 74 80 L 74 8 L 14 8 z M 78 18 L 78 82 A 2.0001999 2.0001999 0 0 1 76 84 L 24 84 L 24 92 L 86 92 L 86 18 L 78 18 z M 44 21 C 49.522847 21 54 25.47715 54 31 C 54 36.52285 49.522847 41 44 41 C 38.477153 41 34 36.52285 34 31 C 34 25.47715 38.477153 21 44 21 z M 44 51 C 53.941125 51 62 59.0589 62 69 L 26 69 C 26 59.0589 34.058875 51 44 51 z " transform="translate(0,952.36218)"/></g>
<text x="0" y="115" fill="#000" font-size="17.5px" font-weight="bold" font-family="'Helvetica Neue', Helvetica, Arial-Unicode, Arial, Sans-serif">CONTACTS</text>
</svg>