<svg xmlns="http://www.w3.org/2000/svg" viewBox="0 0 100 125" x="0px" y="0px">
<path fill="#fff" d="M66.19,18H33.811A15.828,15.828,0,0,0,18,33.811V66.189A15.828,15.828,0,0,0,33.811,82H66.19A15.827,15.827,0,0,0,82,66.189V33.811A15.827,15.827,0,0,0,66.19,18Zm9.735,48.189a9.748,9.748,0,0,1-9.735,9.737H33.811a9.748,9.748,0,0,1-9.736-9.737V33.811a9.748,9.748,0,0,1,9.736-9.737H66.19a9.748,9.748,0,0,1,9.735,9.737Z"/>
<path fill="#fff" d="M50,34.76A15.24,15.24,0,1,0,65.241,50,15.257,15.257,0,0,0,50,34.76Zm0,24.406A9.166,9.166,0,1,1,59.167,50,9.175,9.175,0,0,1,50,59.166Z"/>
<path fill="#fff" d="M65.865,30.068a4.068,4.068,0,1,0,4.067,4.068A4.068,4.068,0,0,0,65.865,30.068Z"/></svg>