<svg xmlns="http://www.w3.org/2000/svg" xmlns:xlink="http://www.w3.org/1999/xlink" version="1.1" x="0px" y="0px" viewBox="0 0 100 125" enable-background="new 0 0 100 100" xml:space="preserve">

<path fill="#000" d="M28.477,65.853c-0.203,0.037-0.412,0.065-0.625,0.065c-2.374,0-4.3-2.491-4.3-5.566c0-2.42,1.197-4.471,2.863-5.237  c0.58-1.347,0.931-2.912,0.931-4.602c0-3.867-2.611-8.072-9.196-8.835V22.91h5.629v-2.168H18.15v-2.795h5.629v-2.168H18.15v-4.426  h-4.361v6.907H8.16v2.168h5.629v2.796H8.16v2.168h5.629v16.272c-6.983,0.728-9.195,4.959-9.195,8.848c0,1.69,0.35,3.257,0.933,4.602  c1.664,0.765,2.86,2.819,2.86,5.237c0,3.075-1.925,5.566-4.299,5.566c-0.213,0-0.422-0.028-0.627-0.065  c-1.529,2.167-2.81,5.191-2.81,8.541C0.65,80.659,5,87.465,14.301,88.13V72h3.336v16.107c8.674-0.837,13.652-7.542,13.652-13.713  C31.29,71.044,30.008,68.02,28.477,65.853z M14.301,41.543h3.336v16.58h-3.336V41.543z M20.065,65.704h-8.19v-1.668h8.19V65.704z"/><g>

<path fill="#000" d="M56.727,60.614c-6.749,0-12.25-5.496-12.25-12.252c0-6.78,5.495-12.273,12.25-12.273c6.791,0,12.276,5.487,12.276,12.273   C69.002,55.118,63.515,60.614,56.727,60.614z"/></g>

<path fill="#000" d="M83.544,63.203c-3.097-3.346-11.412-6.547-17.144-1.725c-6.946,5.852-9.018,16.934-9.638,23.037l-9.789-11.668l5.016-4.209  l-5.232-6.236L33.389,73.618l5.232,6.236l5.016-4.209l3.896,4.644c-3.682,0.836-6.455,4.319-6.572,8.527h15.534h1.032H99.02  C99.02,88.817,94.566,74.484,83.544,63.203z"/>
</svg>