<svg xmlns="http://www.w3.org/2000/svg" xmlns:xlink="http://www.w3.org/1999/xlink" viewBox="0 0 54 75" version="1.1" x="0px" y="0px"><title>3D GUI - Outline - 003 - Ceiling</title><desc>Created with Sketch.</desc><g stroke="none" stroke-width="1" fill="none" fill-rule="evenodd"><g fill-rule="nonzero" fill="#000"><path d="M0.03369,46.18225 C0.0411019253,46.2396171 0.0535806878,46.2962149 0.07098,46.35138 C0.07946,46.37384 0.08722,46.3952 0.09723,46.41681 C0.10181,46.4267 0.10059,46.43744 0.10547,46.44727 C0.127300291,46.479136 0.15106843,46.5096301 0.17664,46.53858 C0.204132806,46.5865858 0.235723719,46.6321253 0.27106,46.67469 C0.28864,46.69369 0.30579,46.71094 0.32471,46.72852 C0.368447067,46.7651208 0.415366948,46.7977405 0.46491,46.82599 C0.492807336,46.8505512 0.522135389,46.873438 0.55274,46.89453 L26.55274,59.89453 C26.8343364,60.0351551 27.1656736,60.0351551 27.44727,59.89453 L53.44727,46.89453 C53.45691,46.88971 53.46235,46.88053 53.47181,46.87543 C53.5437167,46.8359841 53.6104331,46.7877397 53.67042,46.73181 C53.68464,46.71875 53.70124,46.70972 53.71467,46.69586 C53.72567,46.68451 53.73603,46.67291 53.74659,46.66095 C53.76319,46.64215 53.77332,46.62036 53.7884,46.60053 C53.8285973,46.5529533 53.86414,46.5016318 53.89454,46.44727 C53.89942,46.43744 53.8982,46.4267 53.90278,46.41681 C53.91278,46.3952 53.92054,46.37381 53.92903,46.35138 C53.9464293,46.2962149 53.9589081,46.2396171 53.96632,46.18225 C53.9794985,46.1322985 53.9887533,46.0813935 53.994,46.03 C53.99431,46.01944 54,46.01059 54,46 L54,14 C54,13.98938 53.99426,13.98053 53.994,13.97 C53.9887616,13.9186173 53.9795168,13.8677225 53.96635,13.81778 C53.9589381,13.7604129 53.9464593,13.7038151 53.92906,13.64865 C53.92058,13.62619 53.91282,13.60483 53.90281,13.58322 C53.89823,13.57333 53.89945,13.56259 53.89457,13.55276 C53.8727808,13.5210075 53.8490698,13.4906174 53.82357,13.46176 C53.7960385,13.4136413 53.7643866,13.3680004 53.72897,13.32535 C53.71127,13.30635 53.69397,13.28897 53.67497,13.27127 C53.6320392,13.2355926 53.5860897,13.2037128 53.53764,13.17599 C53.5089909,13.1506759 53.4788249,13.1271322 53.44731,13.10549 L27.44731,0.10549 C27.1657136,-0.0351350791 26.8343764,-0.0351350791 26.55278,0.10549 L0.55278,13.10549 C0.521534461,13.1269628 0.491613396,13.1503019 0.46318,13.17538 C0.414286175,13.2033216 0.367944329,13.2355089 0.32469,13.27157 C0.30577,13.28909 0.28869,13.30642 0.2711,13.32534 C0.235786565,13.3678831 0.204196866,13.413384 0.17668,13.46134 C0.151108005,13.4903105 0.127339905,13.5208247 0.10551,13.55271 C0.10063,13.56254 0.10185,13.57328 0.09727,13.58317 C0.08727,13.60478 0.07951,13.62617 0.07102,13.6486 C0.0536206878,13.7037651 0.0411419253,13.7603629 0.03373,13.81773 C0.0205336243,13.8676867 0.011262057,13.9185984 0.006,13.97 C0.00574,13.98053 0,13.98938 0,14 L0,46 C0,46.01062 0.00574,46.01947 0.006,46.03 C0.01124996,46.0813938 0.0205081434,46.1322988 0.03369,46.18225 Z M10.5,10.36816 L16.76367,13.5 L9.5,17.13184 L3.23633,14 L10.5,10.36816 Z M19,6.11816 L25.26367,9.25 L19,12.38184 L12.73633,9.25 L19,6.11816 Z M41.76367,9.5 L36,12.38184 L29.73633,9.25 L35.5,6.36816 L41.76367,9.5 Z M50.76367,14 L45,16.88184 L38.23633,13.5 L44,10.61816 L50.76367,14 Z M52,18.38184 L28,30.38184 L28,27.61816 L52,15.61816 L52,18.38184 Z M36.5,21.13184 L29.73633,17.75 L36,14.61816 L42.76367,18 L36.5,21.13184 Z M34.26367,22.25 L27,25.88184 L20.23633,22.5 L27.5,18.86816 L34.26367,22.25 Z M18,21.38184 L11.73633,18.25 L19,14.61816 L25.26367,17.75 L18,21.38184 Z M26,27.61817 L26,30.38184 L2,18.38184 L2,15.61816 L26,27.61817 Z M2,20.61817 L25.76367,32.5 L2,44.38184 L2,20.61817 Z M52,20.61817 L52,44.38184 L28.23633,32.5 L52,20.61817 Z M33.76367,13.5 L27.5,16.63184 L21.23633,13.5 L27.5,10.36816 L33.76367,13.5 Z M27,57.88184 L3.23633,46 L27,34.11816 L50.76367,46 L27,57.88184 Z M27,2.11816 L33.26367,5.25 L27.5,8.13184 L21.23633,5 L27,2.11816 Z"/></g></g>
</svg>