<svg xmlns="http://www.w3.org/2000/svg" xmlns:xlink="http://www.w3.org/1999/xlink" xml:space="preserve" version="1.1" style="shape-rendering:geometricPrecision;text-rendering:geometricPrecision;image-rendering:optimizeQuality;" viewBox="0 0 846.66 1058.325" x="0px" y="0px" fill-rule="evenodd" clip-rule="evenodd"><defs><style type="text/css">
   
    .fil0 {fill:black;fill-rule:nonzero}
   
  </style></defs><g><path class="fil0" d="M117.97 758.31l36.4 -12.02c0.88,-0.29 1.77,-0.43 2.65,-0.43l196.29 0 430.63 -192.68c5.95,-2.84 10.2,-8 12.26,-13.93 2.09,-6 1.98,-12.85 -0.76,-19l-6.27 -13.13c-2.87,-6 -7.83,-10.08 -13.64,-12.13 -6.4,-2.26 -13.9,-2.12 -21,0.5l-331.28 122.43c-1.34,0.49 -2.72,0.62 -4.05,0.44l-73.27 -8.31c-1.57,-0.17 -2.98,-0.77 -4.16,-1.65l-31.51 -23.8 -58.46 0c-4.67,0 -8.47,-3.8 -8.47,-8.47 0,-4.67 3.8,-8.47 8.47,-8.47l130.87 0c6.99,0 13.35,-2.86 17.92,-7.43 4.61,-4.61 7.47,-10.97 7.47,-17.96l0 -13.86c0,-6.98 -2.86,-13.35 -7.44,-17.95 -4.6,-4.58 -10.96,-7.44 -17.95,-7.44l-139.56 -0.01c-13.7,0.64 -27.38,2.46 -40.8,5.36 -13.39,2.9 -26.46,6.91 -39.02,11.9l-45.32 33.63 0 204.41zm251.17 -495.03c-1.8,4.29 -6.75,6.3 -11.04,4.5 -4.29,-1.8 -6.3,-6.75 -4.5,-11.04 10.37,-24.59 27.83,-45.49 49.81,-60.08 21.34,-14.16 46.95,-22.43 74.43,-22.43 37.23,0 70.94,15.1 95.32,39.48 24.38,24.38 39.48,58.11 39.48,95.32 0,37.23 -15.1,70.94 -39.48,95.32 -24.38,24.38 -58.09,39.48 -95.32,39.48 -19.43,0 -37.97,-4.16 -54.76,-11.63 -17.39,-7.74 -32.85,-19.06 -45.4,-32.98 -3.12,-3.46 -2.83,-8.81 0.63,-11.93 3.46,-3.12 8.81,-2.83 11.93,0.63 11,12.21 24.53,22.12 39.72,28.88 14.56,6.48 30.78,10.09 47.88,10.09 32.54,0 62.02,-13.2 83.34,-34.52 21.32,-21.32 34.52,-50.8 34.52,-83.34 0,-32.54 -13.2,-62.02 -34.52,-83.34 -21.32,-21.32 -50.8,-34.52 -83.34,-34.52 -24.09,0 -46.49,7.21 -65.11,19.57 -19.25,12.78 -34.53,31.06 -43.59,52.54zm-28.4 -38.67c-2.44,3.96 -7.65,5.19 -11.61,2.75 -3.96,-2.44 -5.19,-7.65 -2.75,-11.61 15.92,-25.82 38.32,-47.28 64.88,-62.11 25.66,-14.32 55.2,-22.5 86.58,-22.5 49.13,0 93.61,19.92 125.79,52.1 32.18,32.18 52.1,76.68 52.1,125.79 0,49.13 -19.92,93.61 -52.1,125.79 -32.18,32.18 -76.66,52.1 -125.79,52.1 -10.66,0 -21.26,-0.98 -31.67,-2.85 -10.54,-1.89 -20.77,-4.73 -30.58,-8.39 -4.36,-1.62 -6.58,-6.48 -4.96,-10.84 1.62,-4.36 6.48,-6.58 10.84,-4.96 8.87,3.31 18.13,5.87 27.68,7.59 9.16,1.64 18.77,2.51 28.69,2.51 44.44,0 84.69,-18.02 113.81,-47.14 29.12,-29.12 47.14,-69.37 47.14,-113.81 0,-44.44 -18.02,-84.69 -47.14,-113.81 -29.12,-29.12 -69.37,-47.14 -113.81,-47.14 -28.49,0 -55.23,7.38 -78.38,20.3 -24.03,13.41 -44.3,32.85 -58.72,56.23zm-47.36 -22.97l-40.64 -40.66 74.14 -74.16 35.26 35.26c9.41,-5.84 19.3,-11 29.57,-15.37 10.12,-4.31 20.68,-7.91 31.61,-10.69l0 -50.84 104.9 0 0 49.82c10.94,2.56 21.53,5.93 31.69,10.02 10.38,4.18 20.41,9.17 30,14.87l35.97 -35.96 74.16 74.14 -35.25 35.26c5.84,9.41 11,19.3 15.37,29.57 4.31,10.12 7.91,20.68 10.69,31.61l50.84 0 0 104.9 -49.81 0c-2.56,10.93 -5.93,21.53 -10.02,31.68 -4.18,10.4 -9.17,20.43 -14.87,30.02l35.94 35.96 -37.02 37.03 -11.98 -11.98 25.09 -25.09 -33.47 -33.48 3.65 -5.71c6.58,-10.35 12.3,-21.41 16.98,-33.03 4.59,-11.4 8.19,-23.31 10.64,-35.52l1.37 -6.82 46.56 0 0 -71.02 -47.3 0 -1.47 -6.65c-2.69,-12.14 -6.53,-23.95 -11.36,-35.28 -4.89,-11.48 -10.83,-22.45 -17.66,-32.72l-3.84 -5.77 32.96 -32.95 -50.24 -50.23 -33.48 33.46 -5.71 -3.64c-10.35,-6.59 -21.41,-12.3 -33.02,-16.97 -11.4,-4.59 -23.31,-8.19 -35.53,-10.64l-6.82 -1.37 0 -46.57 -71.02 0 0 47.29 -6.65 1.48c-12.14,2.69 -23.95,6.53 -35.28,11.36 -11.48,4.89 -22.45,10.83 -32.72,17.66l-5.77 3.83 -32.95 -32.95 -50.23 50.24 28.7 28.71 -11.98 11.9zm-179.91 271.51c-4.67,0 -8.47,-3.8 -8.47,-8.47 0,-4.67 3.8,-8.47 8.47,-8.47l21.13 0 0 -144.31c0,-4.67 3.8,-8.47 8.47,-8.47l28.8 0c4.67,0 8.47,3.8 8.47,8.47l0 144.31 16.43 0 0 -97.64c0,-4.67 3.8,-8.47 8.47,-8.47l28.8 0c4.67,0 8.47,3.8 8.47,8.47l0 97.64 16.43 0 0 -237.58c0,-4.67 3.8,-8.47 8.47,-8.47l28.8 0c4.67,0 8.47,3.8 8.47,8.47l0 237.58 16.43 0 0 -154.89c0,-4.67 3.8,-8.47 8.47,-8.47l28.8 0c4.67,0 8.47,3.8 8.47,8.47l0 154.89 21.14 0c4.67,0 8.47,3.8 8.47,8.47 0,4.67 -3.8,8.47 -8.47,8.47 -91.51,0 -183.01,0 -274.52,0zm236.44 -163.36l-11.86 0 0 146.42 11.86 0 0 -146.42zm-62.17 -82.69l-11.86 0 0 229.11 11.86 0 0 -229.11zm-62.17 139.94l-11.86 0 0 89.17 11.86 0 0 -89.17zm-62.17 -46.67l-11.86 0 0 135.84 11.86 0 0 -135.84zm-5.03 442.43l-40.4 13.34 0 16.87c0,4.67 -3.8,8.47 -8.47,8.47l-68.89 0c-4.67,0 -8.47,-3.8 -8.47,-8.47l0 -288.51c0,-4.67 3.8,-8.47 8.47,-8.47l68.89 0c4.67,0 8.47,3.8 8.47,8.47l0 28.37 35.96 -26.68c0.62,-0.49 1.32,-0.89 2.08,-1.2 13.84,-5.58 28.15,-10.01 42.72,-13.16 14.16,-3.06 28.77,-4.98 43.61,-5.68l140.33 -0.07c11.62,0 22.2,4.77 29.87,12.42 7.69,7.71 12.46,18.3 12.46,29.91l0 13.86c0,11.59 -4.76,22.18 -12.41,29.84 -7.73,7.73 -18.32,12.49 -29.92,12.49l-44.36 0 11.8 8.91 69.17 7.84 329.43 -121.74c10.78,-3.98 22.37,-4.11 32.44,-0.56 9.88,3.48 18.3,10.47 23.24,20.79l6.44 13.5c4.56,10.22 4.76,21.55 1.31,31.47 -3.48,10 -10.7,18.71 -20.92,23.59 -142.36,66.3 -288.51,129.1 -432.05,193.32 -1.23,0.69 -2.64,1.08 -4.14,1.08l-196.66 0zm-57.34 -249.83l-51.95 0 0 271.57 51.95 0 0 -271.57z"/></g>

  <text x="5" y="900.66" fill="#000" font-size="85px" font-weight="bold" font-family="'Helvetica Neue', Helvetica, Arial-Unicode, Arial, Sans-serif" >MKJ ENTERPRISES</text></svg>